# xmcd
#
# Track frame offsets:
#	150
#	15034
#	30676
#	48731
#	59847
#	77294
#	93364
#	105991
#	123702
#	136678
#	170794
#
# Disc length: 2371 seconds
#
# Revision: 0
# Processed by: cddbd v1.5.1PL0 Copyright (c) Steve Scherf et al.
# Submitted via: dBpowerAMP V4.0
#
DISCID=8609410b
DTITLE=Rick Henry - Wide Open
DYEAR=2004
DGENRE=Country
TTITLE0=Thicker Than Blood
TTITLE1=Rocks In The Garden
TTITLE2=Wide Open
TTITLE3=Tin Roof
TTITLE4=I Blame Me
TTITLE5=Bounty Huntn' Man
TTITLE6=Take It From You
TTITLE7=Man Of The House
TTITLE8=Hell Of A Storm
TTITLE9=World's Strongest Man
TTITLE10=DATA
EXTD=Submited By: Maxx
EXTT0=
EXTT1=
EXTT2=
EXTT3=
EXTT4=
EXTT5=
EXTT6=
EXTT7=
EXTT8=
EXTT9=
EXTT10=
PLAYORDER=
